<svg xmlns="http://www.w3.org/2000/svg" width="290.43" height="35" viewBox="0 0 290.43 35"><rect class="svg__rect" x="0" y="0" width="115.31" height="35" fill="#6E31F3"/><rect class="svg__rect" x="113.31" y="0" width="177.12" height="35" fill="#C04FDA"/><path class="svg__text" d="M15.69 22L14.22 22L14.22 13.47L16.14 13.47L18.60 20.01L21.06 13.47L22.97 13.47L22.97 22L21.49 22L21.49 19.19L21.64 15.43L19.12 22L18.06 22L15.55 15.43L15.69 19.19L15.69 22ZM28.49 22L26.95 22L30.17 13.47L31.50 13.47L34.73 22L33.18 22L32.49 20.01L29.18 20.01L28.49 22ZM30.83 15.28L29.60 18.82L32.07 18.82L30.83 15.28ZM41.14 22L38.69 22L38.69 13.47L41.21 13.47Q42.34 13.47 43.21 13.97Q44.09 14.48 44.57 15.40Q45.05 16.33 45.05 17.52L45.05 17.52L45.05 17.95Q45.05 19.16 44.57 20.08Q44.08 21.00 43.19 21.50Q42.30 22 41.14 22L41.14 22ZM40.17 14.66L40.17 20.82L41.14 20.82Q42.30 20.82 42.93 20.09Q43.55 19.36 43.56 17.99L43.56 17.99L43.56 17.52Q43.56 16.13 42.96 15.40Q42.35 14.66 41.21 14.66L41.21 14.66L40.17 14.66ZM55.09 22L49.51 22L49.51 13.47L55.05 13.47L55.05 14.66L51.00 14.66L51.00 17.02L54.50 17.02L54.50 18.19L51.00 18.19L51.00 20.82L55.09 20.82L55.09 22ZM66.65 22L64.68 13.47L66.15 13.47L67.47 19.88L69.10 13.47L70.34 13.47L71.96 19.89L73.27 13.47L74.74 13.47L72.77 22L71.35 22L69.73 15.77L68.07 22L66.65 22ZM80.38 22L78.90 22L78.90 13.47L80.38 13.47L80.38 22ZM86.87 14.66L84.23 14.66L84.23 13.47L91.00 13.47L91.00 14.66L88.34 14.66L88.34 22L86.87 22L86.87 14.66ZM96.24 22L94.75 22L94.75 13.47L96.24 13.47L96.24 17.02L100.05 17.02L100.05 13.47L101.53 13.47L101.53 22L100.05 22L100.05 18.21L96.24 18.21L96.24 22Z" fill="#FFFFFF"/><path class="svg__text" d="M129.88 22L127.50 22L127.50 13.60L134.09 13.60L134.09 15.44L129.88 15.44L129.88 17.28L133.59 17.28L133.59 19.12L129.88 19.12L129.88 22ZM141.06 22L138.68 22L138.68 13.60L142.53 13.60Q143.67 13.60 144.51 13.98Q145.35 14.35 145.80 15.06Q146.26 15.76 146.26 16.71L146.26 16.71Q146.26 17.62 145.83 18.30Q145.40 18.98 144.61 19.36L144.61 19.36L146.42 22L143.88 22L142.36 19.77L141.06 19.77L141.06 22ZM141.06 15.47L141.06 17.93L142.38 17.93Q143.11 17.93 143.49 17.61Q143.86 17.29 143.86 16.71L143.86 16.71Q143.86 16.12 143.49 15.79Q143.11 15.47 142.38 15.47L142.38 15.47L141.06 15.47ZM152.46 22L150.04 22L153.75 13.60L156.09 13.60L159.81 22L157.34 22L156.68 20.37L153.13 20.37L152.46 22ZM154.90 15.93L153.82 18.61L155.98 18.61L154.90 15.93ZM166.16 22L163.96 22L163.96 13.60L165.92 13.60L168.87 18.45L171.75 13.60L173.70 13.60L173.73 22L171.55 22L171.53 17.55L169.36 21.17L168.31 21.17L166.16 17.67L166.16 22ZM185.63 22L178.89 22L178.89 13.60L185.48 13.60L185.48 15.44L181.25 15.44L181.25 16.85L184.98 16.85L184.98 18.63L181.25 18.63L181.25 20.17L185.63 20.17L185.63 22ZM192.82 22L190.44 22L190.44 13.60L194.28 13.60Q195.43 13.60 196.26 13.98Q197.10 14.35 197.56 15.06Q198.02 15.76 198.02 16.71L198.02 16.71Q198.02 17.62 197.59 18.30Q197.16 18.98 196.37 19.36L196.37 19.36L198.18 22L195.64 22L194.11 19.77L192.82 19.77L192.82 22ZM192.82 15.47L192.82 17.93L194.14 17.93Q194.87 17.93 195.24 17.61Q195.61 17.29 195.61 16.71L195.61 16.71Q195.61 16.12 195.24 15.79Q194.87 15.47 194.14 15.47L194.14 15.47L192.82 15.47ZM211.97 22L209.78 22L209.78 13.60L211.73 13.60L214.69 18.45L217.57 13.60L219.52 13.60L219.54 22L217.36 22L217.34 17.55L215.18 21.17L214.12 21.17L211.97 17.67L211.97 22ZM224.28 17.80L224.28 17.80Q224.28 16.55 224.88 15.55Q225.48 14.56 226.55 14.00Q227.61 13.43 228.94 13.43L228.94 13.43Q230.27 13.43 231.33 14.00Q232.40 14.56 233.00 15.55Q233.61 16.55 233.61 17.80L233.61 17.80Q233.61 19.05 233.00 20.04Q232.40 21.04 231.34 21.60Q230.28 22.17 228.94 22.17L228.94 22.17Q227.61 22.17 226.55 21.60Q225.48 21.04 224.88 20.04Q224.28 19.05 224.28 17.80ZM226.67 17.80L226.67 17.80Q226.67 18.51 226.98 19.05Q227.28 19.60 227.79 19.90Q228.31 20.20 228.94 20.20L228.94 20.20Q229.58 20.20 230.10 19.90Q230.61 19.60 230.91 19.05Q231.21 18.51 231.21 17.80L231.21 17.80Q231.21 17.09 230.91 16.54Q230.61 16 230.10 15.70Q229.58 15.40 228.94 15.40L228.94 15.40Q228.30 15.40 227.79 15.70Q227.28 16 226.98 16.54Q226.67 17.09 226.67 17.80ZM240.13 15.48L237.55 15.48L237.55 13.60L245.07 13.60L245.07 15.48L242.51 15.48L242.51 22L240.13 22L240.13 15.48ZM251.82 22L249.44 22L249.44 13.60L251.82 13.60L251.82 22ZM256.57 17.80L256.57 17.80Q256.57 16.55 257.17 15.55Q257.78 14.56 258.84 14.00Q259.90 13.43 261.23 13.43L261.23 13.43Q262.56 13.43 263.63 14.00Q264.69 14.56 265.30 15.55Q265.90 16.55 265.90 17.80L265.90 17.80Q265.90 19.05 265.30 20.04Q264.69 21.04 263.63 21.60Q262.57 22.17 261.23 22.17L261.23 22.17Q259.90 22.17 258.84 21.60Q257.78 21.04 257.17 20.04Q256.57 19.05 256.57 17.80ZM258.96 17.80L258.96 17.80Q258.96 18.51 259.27 19.05Q259.57 19.60 260.08 19.90Q260.60 20.20 261.23 20.20L261.23 20.20Q261.87 20.20 262.39 19.90Q262.90 19.60 263.20 19.05Q263.50 18.51 263.50 17.80L263.50 17.80Q263.50 17.09 263.20 16.54Q262.90 16 262.39 15.70Q261.87 15.40 261.23 15.40L261.23 15.40Q260.59 15.40 260.08 15.70Q259.57 16 259.27 16.54Q258.96 17.09 258.96 17.80ZM272.96 22L270.63 22L270.63 13.60L272.59 13.60L276.30 18.07L276.30 13.60L278.62 13.60L278.62 22L276.67 22L272.96 17.52L272.96 22Z" fill="#FFFFFF" x="126.31"/></svg>